<svg xmlns="http://www.w3.org/2000/svg" viewBox="0 0 900 560" width="900" height="560" role="img"> <rect width="900" height="560" fill="#dfd3b4"/> <rect y="330" width="900" height="230" fill="#c9b894"/> <path d="M0,330 H900" stroke="#6b5a42" stroke-width="2.5"/> <path d="M40,110 h250 v210 h-250 z" fill="#e6dcc4" stroke="#6b5a42" stroke-width="3"/> <path d="M70,170 h190 v110 h-190 z" fill="#b9c9c4" stroke="#6b5a42" stroke-width="2.5"/> <path d="M165,170 v110" stroke="#6b5a42" stroke-width="2"/> <path d="M330,110 h260 v210 h-260 z" fill="#e6dcc4" stroke="#6b5a42" stroke-width="3"/> <path d="M360,180 h200 v100 h-200 z" fill="#b9c9c4" stroke="#6b5a42" stroke-width="2.5"/> <path d="M630,110 h230 v210 h-230 z" fill="#e6dcc4" stroke="#6b5a42" stroke-width="3"/> <path d="M660,180 h170 v100 h-170 z" fill="#b9c9c4" stroke="#6b5a42" stroke-width="2.5"/> <circle cx="200" cy="360" r="12.15" fill="#d8b48c" stroke="#2b2117" stroke-width="2.16"/> <path d="M200,372.15 L200,416.7" stroke="#2b2117" stroke-width="2.16"/> <path d="M185.15,378.9 h29.700000000000003 v37.800000000000004 h-29.700000000000003 z" fill="#4a6b57" stroke="#2b2117" stroke-width="2.16"/> <path d="M190.55,387 L185.15,411.3 M209.45,387 L214.85,411.3" stroke="#2b2117" stroke-width="2.43" fill="none"/> <path d="M193.25,416.7 L191.9,443.7 M206.75,416.7 L208.1,443.7" stroke="#2b2117" stroke-width="2.7"/> <circle cx="300" cy="366" r="12.15" fill="#d8b48c" stroke="#2b2117" stroke-width="2.16"/> <path d="M300,378.15 L300,422.7" stroke="#2b2117" stroke-width="2.16"/> <path d="M285.15,384.9 h29.700000000000003 v37.800000000000004 h-29.700000000000003 z" fill="#7a4a3a" stroke="#2b2117" stroke-width="2.16"/> <path d="M290.55,393 L285.15,417.3 M309.45,393 L314.85,417.3" stroke="#2b2117" stroke-width="2.43" fill="none"/> <path d="M293.25,422.7 L291.9,449.7 M306.75,422.7 L308.1,449.7" stroke="#2b2117" stroke-width="2.7"/> <circle cx="430" cy="362" r="12.15" fill="#d8b48c" stroke="#2b2117" stroke-width="2.16"/> <path d="M430,374.15 L430,418.7" stroke="#2b2117" stroke-width="2.16"/> <path d="M415.15,380.9 h29.700000000000003 v37.800000000000004 h-29.700000000000003 z" fill="#3f5370" stroke="#2b2117" stroke-width="2.16"/> <path d="M420.55,389 L415.15,413.3 M439.45,389 L444.85,413.3" stroke="#2b2117" stroke-width="2.43" fill="none"/> <path d="M423.25,418.7 L421.9,445.7 M436.75,418.7 L438.1,445.7" stroke="#2b2117" stroke-width="2.7"/> <path d="M600,330 v90 M760,330 v90" stroke="#a8a49b" stroke-width="7"/> <circle cx="630" cy="446" r="24" fill="none" stroke="#2b2117" stroke-width="4"/> <circle cx="700" cy="446" r="24" fill="none" stroke="#2b2117" stroke-width="4"/> <path d="M630,446 L664,412 L700,446 M664,412 v-26 h20" stroke="#2b2117" stroke-width="3.5" fill="none"/> <circle cx="750" cy="446" r="24" fill="none" stroke="#2b2117" stroke-width="4"/> <circle cx="820" cy="446" r="24" fill="none" stroke="#2b2117" stroke-width="4"/> <path d="M750,446 L784,412 L820,446 M784,412 v-26 h20" stroke="#2b2117" stroke-width="3.5" fill="none"/> <rect x="2" y="2" width="896" height="556" fill="none" stroke="#6b5a42" stroke-width="4"/> </svg>
